<svg width="311" height="311" viewBox="0 0 311 311" fill="none" xmlns="http://www.w3.org/2000/svg">
<path d="M287.51 179.342C272.233 177.626 256.4 178.428 240.562 182.012C213.83 188.023 189.814 201.737 170.982 221.069C152.149 201.736 128.133 188.009 101.4 182C85.5619 178.417 69.7266 177.628 54.4496 179.345L47.5782 180.126L37.2894 210.609L50.8702 209.075L55.8244 208.625C67.4228 207.808 79.3848 208.662 91.375 211.374C118.774 217.532 143.091 232.954 160.147 254.813L181.818 254.816C198.874 232.956 223.202 217.53 250.6 211.371C264.304 208.27 277.957 207.596 291.092 209.072L304.673 210.605L294.381 180.123L287.51 179.342Z" fill="white"/>
</svg>
